<?xml version="1.0" encoding="utf-8"?>
<svg width="24" height="24" version="1.1" id="Layer_1" xmlns="http://www.w3.org/2000/svg" xmlns:xlink="http://www.w3.org/1999/xlink" x="0px" y="0px"
	 viewBox="10 5 64.4 59.4" style="enable-background:new 0 0 74.4 74.4;" xml:space="preserve" preserveAspectRatio="xMinYMid meet">
<g>
	<path d="M53.5,35.1
    C53.5,30 60,5 65,10
    S62,25 65,30
    S52,35 57,35
    C70,35 65,45 62,50
    S65,55 47,50
    " stroke="black" fill="none" stroke-width="3"/>
</g>
<g>
	<path d="M53.5,35.1
    C53.5,30 25,5 20,10
    S22,25 20,30
    S60,35 50,35
    C40,35 20,45 30,40
    S18,40 25,50
    S30,60 50,50
    L55,25" stroke="black" fill="yellow" stroke-width="5"/>
</g>
</svg>
